<?xml version="1.0" encoding="utf-8"?>
<!-- Generator: Adobe Illustrator 24.1.1, SVG Export Plug-In . SVG Version: 6.00 Build 0)  -->
<svg version="1.1" id="Layer_1" xmlns="http://www.w3.org/2000/svg" xmlns:xlink="http://www.w3.org/1999/xlink" x="0px" y="0px"
	 viewBox="0 0 512 512" style="enable-background:new 0 0 512 512;" xml:space="preserve">
<style type="text/css">
	.st0{fill:#231F20;}
</style>
<g>
	<path class="st0" d="M39.3,212.4c11.3,13.6,31.5,15.5,45.1,4.2l0.1,0L224,100.4V480c0,17.7,14.3,32,32,32c17.7,0,32-14.3,32-32
		V100.4l139.5,116.2c13.6,11.3,33.8,9.5,45.1-4.2c11.3-13.6,9.4-33.8-4.2-45.1l-192-160l-4.8-2.9l-4.2-2.3c-7.4-2.9-15.6-2.9-23.1,0
		l-4.2,2.3l-4.8,2.9l-192,160C29.9,178.6,28,198.8,39.3,212.4L39.3,212.4z"/>
</g>
</svg>
