<?xml version="1.0" encoding="utf-8"?>
<!-- Generator: Adobe Illustrator 21.0.0, SVG Export Plug-In . SVG Version: 6.00 Build 0)  -->
<svg version="1.1" id="Layer_1" xmlns="http://www.w3.org/2000/svg" xmlns:xlink="http://www.w3.org/1999/xlink" x="0px" y="0px"
	 viewBox="0 0 512 512" style="enable-background:new 0 0 512 512;" xml:space="preserve">
<g>
	<path d="M324.6,470.9H187.4c-2.5,0-4.6,2.1-4.6,4.6v18.3c0,10.1,8.2,18.3,18.3,18.3h109.7c10.1,0,18.3-8.2,18.3-18.3v-18.3
		C329.1,472.9,327.1,470.9,324.6,470.9z M256,0C152.5,0,68.6,83.9,68.6,187.4c0,69.4,37.7,129.9,93.7,162.3V416
		c0,10.1,8.2,18.3,18.3,18.3h150.9c10.1,0,18.3-8.2,18.3-18.3v-66.2c56-32.4,93.7-93,93.7-162.3C443.4,83.9,359.5,0,256,0z
		 M329.1,314.2l-20.5,11.9v67.1H203.4v-67.1l-20.5-11.9c-45-26-73.2-73.9-73.2-126.7c0-80.8,65.5-146.3,146.3-146.3
		c80.8,0,146.3,65.5,146.3,146.3C402.3,240.3,374.1,288.2,329.1,314.2z"/>
</g>
</svg>
