<?xml version="1.0" encoding="utf-8"?>
<!-- Generator: Adobe Illustrator 24.1.1, SVG Export Plug-In . SVG Version: 6.00 Build 0)  -->
<svg version="1.1" id="Layer_1" xmlns="http://www.w3.org/2000/svg" xmlns:xlink="http://www.w3.org/1999/xlink" x="0px" y="0px"
	 viewBox="0 0 512 512" style="enable-background:new 0 0 512 512;" xml:space="preserve">
<g>
	<path d="M245.33,512c-17.65,0-32-14.35-32-32v-39.34c-17.02-4.03-33.67-9.76-49.56-17.1l-28.56,28.57
		c-6.03,6.02-14.07,9.35-22.64,9.35c-8.55,0-16.59-3.33-22.61-9.35l-30.19-30.18c-12.46-12.48-12.48-32.76,0-45.24l28.59-28.59
		c-7.3-15.86-13.01-32.47-17.02-49.45H32c-17.65,0-32-14.35-32-32v-21.33c0-17.65,14.35-32,32-32h39.43
		c4.01-17,9.75-33.58,17.04-49.45l-28.58-28.57c-12.48-12.48-12.48-32.76,0-45.24l30.19-30.19c6.03-6.04,14.07-9.36,22.64-9.36
		c8.55,0,16.57,3.34,22.6,9.36l28.57,28.52c15.84-7.3,32.45-13.01,49.45-17.02V32c0-17.65,14.35-32,32-32h21.33
		c17.65,0,32,14.35,32,32v39.43c17,4.01,33.58,9.73,49.43,17.04l28.59-28.56c6.03-6.04,14.07-9.34,22.63-9.34
		c8.56,0,16.6,3.32,22.64,9.34l30.19,30.19c12.46,12.48,12.46,32.76,0,45.25l-28.5,28.54c7.3,15.84,13.01,32.45,17.05,49.47H480
		c17.65,0,32,14.35,32,32v21.33c0,17.65-14.35,32-32,32h-39.34c-4.03,17.02-9.76,33.65-17.1,49.54l28.56,28.56
		c6.04,6.03,9.36,14.07,9.36,22.64c0,8.55-3.32,16.59-9.36,22.61l-30.17,30.17c-6.03,6.04-14.05,9.35-22.64,9.35
		c-8.57,0-16.59-3.31-22.63-9.35l-28.61-28.57c-15.84,7.3-32.43,13.01-49.41,17.02V480c0,17.65-14.35,32-32,32H245.33z M161.58,400
		l4.75,1.1c18.93,9.44,39.04,16.32,59.78,20.51c4.95,1.02,8.55,5.42,8.55,10.47V480c0,5.9,4.78,10.67,10.67,10.67h21.33
		c5.89,0,10.67-4.77,10.67-10.67v-47.92c0-5.05,3.6-9.47,8.55-10.45c20.68-4.17,40.73-11.03,59.65-20.44l4.76-1.11
		c2.84,0,5.53,1.11,7.53,3.11l33.94,33.9c2.01,2.01,4.7,3.11,7.55,3.11c2.86,0,5.53-1.1,7.55-3.11l30.17-30.16
		c4.17-4.17,4.17-10.93,0-15.08l-33.9-33.93c-3.24-3.24-4.05-8.19-2-12.28c9.43-18.91,16.31-39.02,20.5-59.78
		c1-4.95,5.4-8.53,10.45-8.53H480c5.89,0,10.67-4.78,10.67-10.67v-21.33c0-5.89-4.78-10.67-10.67-10.67h-47.94
		c-5.05,0-9.47-3.6-10.45-8.55c-4.17-20.7-11.03-40.77-20.44-59.7c-2.05-4.09-1.24-9.04,2-12.28l33.83-33.88
		c4.17-4.17,4.17-10.93,0-15.08l-30.19-30.19c-2-2.01-4.69-3.11-7.55-3.11c-2.85,0-5.52,1.1-7.55,3.11l-33.92,33.9
		c-2,2.01-4.7,3.11-7.55,3.11l-4.76-1.14c-18.85-9.39-38.93-16.25-59.63-20.41c-4.93-1.01-8.53-5.41-8.53-10.46V32
		c0-5.89-4.78-10.67-10.67-10.67h-21.33c-5.89,0-10.67,4.78-10.67,10.67v47.96c0,5.05-3.6,9.45-8.57,10.45
		c-20.7,4.17-40.77,11.03-59.68,20.44l-4.73,1.11c-2.84,0-5.53-1.11-7.53-3.14l-33.92-33.85c-2.01-2.01-4.7-3.11-7.55-3.11
		c-2.86,0-5.53,1.1-7.55,3.14l-30.17,30.19c-4.17,4.16-4.17,10.92,0,15.08l33.92,33.9c3.24,3.24,4.05,8.19,2.01,12.28
		c-9.4,18.91-16.26,38.98-20.44,59.68c-1.01,4.95-5.41,8.55-10.46,8.55H32c-5.89,0-10.67,4.78-10.67,10.67v21.33
		c0,5.89,4.78,10.67,10.67,10.67h47.92c5.05,0,9.45,3.6,10.45,8.55c4.19,20.7,11.05,40.77,20.44,59.7c2.05,4.09,1.24,9.04-2,12.28
		l-33.93,33.93c-4.16,4.16-4.16,10.92,0,15.07l30.19,30.17c2.01,2.01,4.7,3.11,7.53,3.11c2.86,0,5.53-1.1,7.55-3.11l33.91-33.9
		C156.05,401.1,158.72,400,161.58,400z"/>
	<path d="M256,362.67c-58.81,0-106.67-47.85-106.67-106.67S197.19,149.33,256,149.33S362.67,197.19,362.67,256
		S314.81,362.67,256,362.67z M256,170.67c-47.06,0-85.33,38.27-85.33,85.33s38.27,85.33,85.33,85.33s85.33-38.27,85.33-85.33
		S303.06,170.67,256,170.67z"/>
</g>
</svg>
