<?xml version="1.0" encoding="utf-8"?>
<!-- Generator: Adobe Illustrator 24.1.1, SVG Export Plug-In . SVG Version: 6.00 Build 0)  -->
<svg version="1.1" id="Layer_1" xmlns="http://www.w3.org/2000/svg" xmlns:xlink="http://www.w3.org/1999/xlink" x="0px" y="0px"
	 viewBox="0 0 512 512" style="enable-background:new 0 0 512 512;" xml:space="preserve">
<g>
	<path d="M13.5,377.3v53.9c0,44.7,36.2,80.8,80.8,80.8h323.4c44.7,0,80.8-36.2,80.8-80.8l0-53.9c0-14.9-12.1-26.9-26.9-26.9
		c-14.9,0-26.9,12.1-26.9,26.9v53.9c0,14.9-12.1,26.9-26.9,26.9H94.3c-14.9,0-26.9-12.1-26.9-26.9l0-53.9
		c0-14.9-12.1-26.9-26.9-26.9C25.5,350.3,13.5,362.4,13.5,377.3z"/>
	<path d="M102.2,234.6l134.7,134.7c5,5,12,7.9,19.1,7.9s14-2.9,19.1-7.9l134.7-134.7c10.5-10.5,10.5-27.6,0-38.1
		c-10.5-10.5-27.6-10.5-38.1,0L256,312.2L140.3,196.5c-10.5-10.5-27.6-10.5-38.1,0S91.7,224.1,102.2,234.6L102.2,234.6z"/>
	<path d="M229.1,26.9v323.4c0,14.9,12.1,26.9,26.9,26.9c14.9,0,26.9-12.1,26.9-26.9V26.9C282.9,12.1,270.9,0,256,0
		C241.1,0,229.1,12.1,229.1,26.9"/>
</g>
</svg>
