<?xml version="1.0" encoding="utf-8"?>
<!-- Generator: Adobe Illustrator 19.0.0, SVG Export Plug-In . SVG Version: 6.00 Build 0)  -->
<svg version="1.1" id="Layer_1" xmlns="http://www.w3.org/2000/svg" xmlns:xlink="http://www.w3.org/1999/xlink" x="0px" y="0px"
	 viewBox="0 0 512 512" style="enable-background:new 0 0 512 512;" xml:space="preserve">
	 <defs>
			<linearGradient id="MyGradient" x1="0%" y1="0%" x2="0%" y2="100%">
				<stop offset="5%" stop-color="#ffc400" />
				<stop offset="95%" stop-color="#ff1e00" />
			</linearGradient>
		</defs>
<g id="XMLID_1_">
	<path id="XMLID_13_" d="M132.3,86.8l-23-23c-6-6-16.2-6-23,0c-6,6-6,16.2,0,23l23,23c6,6,16.2,6,23,0
		C138.2,102.9,138.2,92.7,132.3,86.8z"/>
	<path id="XMLID_14_" d="M48.9,224.5H16.6c-8.5,0-16.2,6.8-16.2,16.2c0,8.5,6.8,16.2,16.2,16.2h32.3c8.5,0,16.2-6.8,16.2-16.2
		S58.3,224.5,48.9,224.5z"/>
	<path id="XMLID_15_" d="M495.4,256h-32.3c-8.5,0-16.2,6.8-16.2,16.2c0,8.5,6.8,16.2,16.2,16.2h32.3c8.5,0,16.2-6.8,16.2-16.2
		S504.8,256,495.4,256z"/>
	<path id="XMLID_16_" d="M447.8,86.8c-6-6-16.2-6-23,0l-23,23c-6,6-6,16.2,0,23c6,6,16.2,6,23,0l23-23
		C454.6,102.9,454.6,92.7,447.8,86.8z"/>
	<path id="XMLID_17_" d="M272.6,64.6c4.3,0,8.5-1.7,11.1-5.1c2.6-2.6,4.3-6.8,4.3-11.1V16.2c0-8.5-6.8-16.2-16.2-16.2
		c-6.8,0-11.9,4.3-14.5,9.4l-0.9,7.7v32.3C256.4,57.8,263.2,64.6,272.6,64.6z"/>
	<path id="XMLID_20_" d="M256.4,128.4c-70.6,0-127.6,57-127.6,127.6c0,46.8,25.5,87.6,63.8,109.7V415h127.6v-49.3
		C358.5,343.6,384,302.8,384,256C384,185.4,327,128.4,256.4,128.4z M304.1,338.5l-16.2,9.4v18.7v17h-63.8v-17.9V347l-16.2-9.4
		c-29.8-17.9-47.6-48.5-47.6-82.5c0-52.7,42.5-96.1,96.1-96.1c52.7,0,96.1,42.5,96.1,96.1C351.7,290,333.8,320.6,304.1,338.5z"/>
	<path id="XMLID_21_" d="M192.6,479.7h33.2l-0.9,4.3c0,15.3,14.5,28.1,32.3,28.1s32.3-12.8,32.3-28.1l-0.9-4.3h33.2v-32.3H194.3
		v32.3H192.6z"/>
</g>
</svg>
