<?xml version="1.0" encoding="utf-8"?>
<!-- Generator: Adobe Illustrator 24.1.1, SVG Export Plug-In . SVG Version: 6.00 Build 0)  -->
<svg version="1.1" id="Layer_1" xmlns="http://www.w3.org/2000/svg" xmlns:xlink="http://www.w3.org/1999/xlink" x="0px" y="0px"
	 viewBox="0 0 512 512" style="enable-background:new 0 0 512 512;" xml:space="preserve">
<g>
	<path d="M512,235.38c0-29.45-23.88-53.33-53.33-53.33H324.03c-2.95,0-5.32-2.4-5.32-5.34l0.27-1.65
		c11.77-29.85,15.59-62.25,11.09-94.02c-12.55-44.69-39.13-57.59-59.93-54.72c-21.14,3.59-36.32,22.31-35.48,43.73
		c0,58.58-45.42,122.58-86.06,150.64c-2.89,2-4.6,5.28-4.6,8.79v215.81c0,5.1,3.63,9.5,8.64,10.48c7.63,1.46,14.53,2.88,21.06,4.25
		c28.71,6.85,58.13,10.23,87.64,10.06H400c41.75,0,48-23.47,48-37.34c0-7.35-1.69-14.6-4.95-21.2c23.45-11.89,32.97-40.43,21.33-64
		c16.11-8.19,26.27-24.74,26.28-42.82c0.01-7.99-1.99-15.85-5.82-22.86C501.61,272.4,512,254.64,512,235.38z"/>
	<path d="M112,230.05c0-11.78-9.55-21.33-21.33-21.33H21.33C9.55,208.72,0,218.27,0,230.05v234.68c0,11.77,9.55,21.33,21.33,21.33
		h69.33c11.78,0,21.33-9.56,21.33-21.33V230.05z M80,427.38c0,8.84-7.17,16-16,16s-16-7.16-16-16c0-8.83,7.17-16,16-16
		S80,418.55,80,427.38z"/>
</g>
</svg>
