<?xml version="1.0" encoding="utf-8"?>
<!-- Generator: Adobe Illustrator 24.1.1, SVG Export Plug-In . SVG Version: 6.00 Build 0)  -->
<svg version="1.1" id="Layer_1" xmlns="http://www.w3.org/2000/svg" xmlns:xlink="http://www.w3.org/1999/xlink" x="0px" y="0px"
	 viewBox="0 0 512 512" style="enable-background:new 0 0 512 512;" xml:space="preserve">
<g>
	<path d="M426.7,0c15.9,0,29.4,5.5,40.4,16.5c11,11,16.5,24.5,16.5,40.4v398.2c0,15.2-5.5,28.4-16.5,39.8
		c-11,11.4-24.5,17.1-40.4,17.1H85.3c-15.2,0-28.4-5.7-39.8-17.1s-17.1-24.7-17.1-39.8V56.9c0-15.9,5.7-29.4,17.1-40.4
		S70.2,0,85.3,0H426.7 M426.7,455.1V56.9H85.3v398.2H426.7 M284.4,312.9v28.4H142.2v-28.4H284.4 M369.8,199.1v28.4H256v-28.4H369.8
		 M256,170.7v-56.9h113.8v56.9H256 M227.6,113.8v113.8h-85.3V113.8H227.6 M199.1,256v28.4h-56.9V256H199.1 M227.6,284.4V256h142.2
		v28.4H227.6 M369.8,369.8v28.4H142.2v-28.4H369.8 M312.9,341.3v-28.4h56.9v28.4H312.9"/>
</g>
</svg>
