<?xml version="1.0" encoding="utf-8"?>
<!-- Generator: Adobe Illustrator 24.1.1, SVG Export Plug-In . SVG Version: 6.00 Build 0)  -->
<svg version="1.1" id="Layer_1" xmlns="http://www.w3.org/2000/svg" xmlns:xlink="http://www.w3.org/1999/xlink" x="0px" y="0px"
	 viewBox="0 0 512 512" style="enable-background:new 0 0 512 512;" xml:space="preserve">
<g>
	<path d="M476.2,320.4l-68.6-44.9l26.4-48.4c6.1-11.4,9.7-24.9,9.7-39.2v-76.8v-0.3C443.7,49.6,394.1,0,332.9,0
		c-29.1,0-55.6,11.2-75.4,29.6l0.1-0.1l23.2,25c13.7-12.7,32-20.4,52.1-20.4c42.4,0,76.8,34.4,76.8,76.8v0.2v76.8
		c0,8.4-2.1,16.2-5.7,23.2l0.1-0.3l-41.5,76.1l95,62.1c12.3,8.1,20.3,22,20.3,37.6v0.2v57h-76.8v34.1H512v-91.2v-0.2
		c0-27.5-14.1-51.8-35.5-65.9L476.2,320.4L476.2,320.4z"/>
	<path d="M322.6,354.6L254,309.7l26.4-48.4c6.1-11.4,9.7-24.9,9.7-39.2v-76.8c0-61.3-49.7-110.9-110.9-111
		c-61.1,0-110.9,49.8-110.9,111V222v0.4c0,14.2,3.6,27.6,9.8,39.3l-0.2-0.5l26.6,48.7l-68.2,44.6c-21.7,14.3-35.8,38.6-35.8,66.1
		v0.1L0,512h358.4v-91.2v-0.2c0-27.5-14.1-51.8-35.5-65.9L322.6,354.6L322.6,354.6z M324.3,477.9h-290l0.3-57v-0.2
		c0-15.7,8-29.5,20.2-37.5l0.2-0.1l94.6-61.9l-41.6-76.3c-3.4-6.6-5.4-14.4-5.4-22.7V222v-76.8c0-42.4,34.4-76.8,76.8-76.8
		c42.4,0,76.8,34.4,76.8,76.8V222c0,8.4-2.1,16.2-5.7,23.2l0.1-0.3L209,321l95,62.1c12.3,8.1,20.3,22,20.3,37.6v0.2L324.3,477.9z"/>
</g>
</svg>
