<?xml version="1.0" encoding="utf-8"?>
<!-- Generator: Adobe Illustrator 24.1.1, SVG Export Plug-In . SVG Version: 6.00 Build 0)  -->
<svg version="1.1" id="Layer_1" xmlns="http://www.w3.org/2000/svg" xmlns:xlink="http://www.w3.org/1999/xlink" x="0px" y="0px"
	 viewBox="0 0 512 512" style="enable-background:new 0 0 512 512;" xml:space="preserve">
<g>
	<path d="M12,236.1l99.4,91.1L83.9,454.3c-2.8,16.6,2.8,33.2,16.6,41.4c5.5,5.5,13.8,8.3,22.1,8.3c5.5,0,11,0,16.6-2.8
		c0,0,2.8,0,2.8-2.8L255.1,435l113.2,63.5c0,0,2.8,0,2.8,2.8c13.8,5.5,30.4,5.5,41.4-2.8c13.8-8.3,19.3-24.9,16.6-41.4L401.5,330
		c11-8.3,27.6-24.9,44.2-41.4l52.5-46.9l2.8-2.8c11-11,13.8-27.6,8.3-41.4c-5.5-13.8-16.6-24.9-33.1-27.6h-2.8L343.5,156L291,37.2
		c0,0,0-2.8-2.8-2.8c-2.8-19.3-16.6-27.6-30.4-27.6c-13.8,0-27.6,8.3-35.9,22.1c0,0,0,2.8-2.8,2.8l-52.5,118.8L36.9,164.3h-2.8
		C20.3,167.1,6.5,178.1,1,191.9C-1.8,208.5,1,225.1,12,236.1z"/>
</g>
</svg>
