<?xml version="1.0" encoding="utf-8"?>
<!-- Generator: Adobe Illustrator 24.1.1, SVG Export Plug-In . SVG Version: 6.00 Build 0)  -->
<svg version="1.1" id="Layer_1" xmlns="http://www.w3.org/2000/svg" xmlns:xlink="http://www.w3.org/1999/xlink" x="0px" y="0px"
	 viewBox="0 0 512 512" style="enable-background:new 0 0 512 512;" xml:space="preserve">
<style type="text/css">
	.st0{fill-rule:evenodd;clip-rule:evenodd;}
</style>
<g>
	<path d="M170.7,187.7c9.4,0,17.1,7.6,17.1,17.1v204.8c0,9.4-7.6,17.1-17.1,17.1c-9.4,0-17.1-7.6-17.1-17.1V204.8
		C153.6,195.4,161.2,187.7,170.7,187.7z M256,187.7c9.4,0,17.1,7.6,17.1,17.1v204.8c0,9.4-7.6,17.1-17.1,17.1
		c-9.4,0-17.1-7.6-17.1-17.1V204.8C238.9,195.4,246.6,187.7,256,187.7z M358.4,204.8c0-9.4-7.6-17.1-17.1-17.1
		c-9.4,0-17.1,7.6-17.1,17.1v204.8c0,9.4,7.6,17.1,17.1,17.1c9.4,0,17.1-7.6,17.1-17.1V204.8z"/>
	<path class="st0" d="M477.9,102.4c0,18.8-15.3,34.1-34.1,34.1h-17.1v307.2c0,37.7-30.6,68.3-68.3,68.3H153.6
		c-37.7,0-68.3-30.6-68.3-68.3V136.5H68.3c-18.8,0-34.1-15.3-34.1-34.1V68.3c0-18.8,15.3-34.1,34.1-34.1h119.5
		C187.7,15.3,203,0,221.9,0h68.3c18.8,0,34.1,15.3,34.1,34.1h119.5c18.8,0,34.1,15.3,34.1,34.1V102.4z M123.5,136.5l-4,2v305.2
		c0,18.8,15.3,34.1,34.1,34.1h204.8c18.8,0,34.1-15.3,34.1-34.1V138.6l-4-2H123.5z M68.3,102.4V68.3h375.5v34.1H68.3z"/>
</g>
</svg>
