<?xml version="1.0" encoding="utf-8"?>
<!-- Generator: Adobe Illustrator 21.0.0, SVG Export Plug-In . SVG Version: 6.00 Build 0)  -->
<svg version="1.1" id="Layer_1" xmlns="http://www.w3.org/2000/svg" xmlns:xlink="http://www.w3.org/1999/xlink" x="0px" y="0px"
	 viewBox="0 0 512 512" style="enable-background:new 0 0 512 512;" xml:space="preserve">
<g>
	<path d="M256,0C114.8,0,0,114.8,0,256s114.8,256,256,256s256-114.8,256-256S397.2,0,256,0z M256,39.4
		c119.8,0,216.6,96.8,216.6,216.6S375.8,472.6,256,472.6S39.4,375.8,39.4,256S136.2,39.4,256,39.4z M256,98.5
		c-54.2,0-98.5,44.3-98.5,98.5c0,29.8,13.9,56.4,35.1,74.5c-44.3,23-74.5,69.3-74.5,122.5h39.4c0-54.6,43.8-98.5,98.5-98.5
		s98.5,43.8,98.5,98.5h39.4c0-53.2-30.2-99.5-74.5-122.5c21.2-18.1,35.1-44.6,35.1-74.5C354.5,142.8,310.2,98.5,256,98.5z
		 M256,137.8c32.8,0,59.1,26.2,59.1,59.1S288.8,256,256,256s-59.1-26.2-59.1-59.1S223.2,137.8,256,137.8z"/>
</g>
</svg>
