<?xml version="1.0" encoding="utf-8"?>
<!-- Generator: Adobe Illustrator 24.1.1, SVG Export Plug-In . SVG Version: 6.00 Build 0)  -->
<svg version="1.1" id="Layer_1" xmlns="http://www.w3.org/2000/svg" xmlns:xlink="http://www.w3.org/1999/xlink" x="0px" y="0px"
	 viewBox="0 0 512 512" style="enable-background:new 0 0 512 512;" xml:space="preserve">
<g>
	<path d="M173.8,234.7V256c70.7,0,128-57.3,128-128c0-70.7-57.3-128-128-128c-70.7,0-128,57.3-128,128c0,70.7,57.3,128,128,128
		V234.7v-21.3c-23.6,0-44.8-9.5-60.3-25c-15.5-15.5-25-36.7-25-60.3c0-23.6,9.5-44.8,25-60.3c15.5-15.5,36.7-25,60.3-25
		c23.6,0,44.8,9.5,60.3,25c15.5,15.5,25,36.7,25,60.3c0,23.6-9.5,44.8-25,60.3c-15.5,15.5-36.7,25-60.3,25V234.7z M296.1,262.8
		c-30.7-31.1-74-49.5-122.3-49.5c-48,0-91.1,18.2-121.8,48.9C21.3,292.9,3.1,336,3.1,384v128h170.7v-42.7l-128,0l0-85.3
		c0-37.3,13.8-68.9,36.4-91.6c22.7-22.6,54.3-36.4,91.6-36.4c37.6,0,69.3,14,92,36.8L296.1,262.8L296.1,262.8z M216.5,416h-21.3
		c0,41.2,33.4,74.6,74.7,74.7c41.3,0,74.6-33.4,74.7-74.7c0-41.2-33.4-74.7-74.7-74.7c-41.2,0-74.6,33.4-74.7,74.7H216.5h21.3
		c0-17.7,14.4-32,32-32c17.7,0,32,14.3,32,32c0,17.6-14.3,32-32,32c-17.6,0-32-14.4-32-32H216.5z M508.9,304.9l-79.1-79.1
		L286.7,368.9l30.2,30.2l112.9-112.9l48.9,48.9L508.9,304.9L508.9,304.9z M376.5,309.3l-15.1,15.1l64,64l30.2-30.2l-64-64
		l-30.2,30.2L376.5,309.3l-15.1,15.1l64,64l30.2-30.2l-64-64l-30.2,30.2L376.5,309.3z"/>
</g>
</svg>
